# xmcd CD database file
#
# Track frame offsets:
#	150
#	18118
#	38480
#	61213
#
# Disc length: 1053 seconds
#
# Revision: 0
# Processed by: cddbd v1.5.1PL0 Copyright (c) Steve Scherf et al.
# Submitted via: CDex 1.51
#
DISCID=21041b04
DTITLE=川江美奈子 - しあわせ
DYEAR=2005
DGENRE=J ポップ
TTITLE0=しあわせ
TTITLE1=しあわせ Acoustic Version
TTITLE2=最終電車 Studio Live Version
TTITLE3=しあわせ Vocal-less Track
EXTD=YEAR: 2005
EXTT0=
EXTT1=
EXTT2=
EXTT3=
PLAYORDER=
